<svg version="1.1" viewBox="0.0 0.0 113.38582677165354 113.38582677165354" fill="none" stroke="none" stroke-linecap="square" stroke-miterlimit="10" xmlns:xlink="http://www.w3.org/1999/xlink" xmlns="http://www.w3.org/2000/svg"><clipPath id="p.0"><path d="m0 0l113.385826 0l0 113.385826l-113.385826 0l0 -113.385826z" clip-rule="nonzero"/></clipPath><g clip-path="url(#p.0)"><path fill="#000000" fill-opacity="0.0" d="m0 0l113.385826 0l0 113.385826l-113.385826 0z" fill-rule="evenodd"/><path fill="#cfe2f3" d="m86.97079 17.75929l10.883781 10.340315l-10.883781 10.340317l-10.883789 -10.340317z" fill-rule="evenodd"/><path stroke="#ffffff" stroke-width="2.0" stroke-linejoin="round" stroke-linecap="butt" d="m86.97079 17.75929l10.883781 10.340315l-10.883781 10.340317l-10.883789 -10.340317z" fill-rule="evenodd"/><path fill="#cfe2f3" d="m26.415043 74.94591l10.883781 10.340309l-10.883781 10.340317l-10.883783 -10.340317z" fill-rule="evenodd"/><path stroke="#ffffff" stroke-width="2.0" stroke-linejoin="round" stroke-linecap="butt" d="m26.415043 74.94591l10.883781 10.340309l-10.883781 10.340317l-10.883783 -10.340317z" fill-rule="evenodd"/><path fill="#cfe2f3" d="m86.97079 74.94591l10.883781 10.340309l-10.883781 10.340317l-10.883789 -10.340317z" fill-rule="evenodd"/><path stroke="#ffffff" stroke-width="2.0" stroke-linejoin="round" stroke-linecap="butt" d="m86.97079 74.94591l10.883781 10.340309l-10.883781 10.340317l-10.883789 -10.340317z" fill-rule="evenodd"/><path fill="#000000" fill-opacity="0.0" d="m81.52889 33.269764l-18.945053 17.958424" fill-rule="evenodd"/><path stroke="#ffffff" stroke-width="2.0" stroke-linejoin="round" stroke-linecap="butt" d="m81.52889 33.269764l-18.945053 17.958424" fill-rule="evenodd"/><path fill="#000000" fill-opacity="0.0" d="m31.856934 80.116066l18.945053 -17.958427" fill-rule="evenodd"/><path stroke="#ffffff" stroke-width="2.0" stroke-linejoin="round" stroke-linecap="butt" d="m31.856934 80.116066l18.945053 -17.958427" fill-rule="evenodd"/><path fill="#000000" fill-opacity="0.0" d="m62.583008 62.148815l18.945053 17.958424" fill-rule="evenodd"/><path stroke="#ffffff" stroke-width="2.0" stroke-linejoin="round" stroke-linecap="butt" d="m62.583008 62.148815l18.945053 17.958424" fill-rule="evenodd"/><path fill="#cfe2f3" d="m48.36528 56.690174l0 0c0 -4.263466 3.728817 -7.7196846 8.328552 -7.7196846l0 0c4.5997314 0 8.328552 3.4562187 8.328552 7.7196846l0 0c0 4.263466 -3.7288208 7.7196846 -8.328552 7.7196846l0 0c-4.5997353 0 -8.328552 -3.4562187 -8.328552 -7.7196846z" fill-rule="evenodd"/><path stroke="#ffffff" stroke-width="2.0" stroke-linejoin="round" stroke-linecap="butt" d="m48.36528 56.690174l0 0c0 -4.263466 3.728817 -7.7196846 8.328552 -7.7196846l0 0c4.5997314 0 8.328552 3.4562187 8.328552 7.7196846l0 0c0 4.263466 -3.7288208 7.7196846 -8.328552 7.7196846l0 0c-4.5997353 0 -8.328552 -3.4562187 -8.328552 -7.7196846z" fill-rule="evenodd"/></g></svg>